<?xml version="1.0" standalone="no"?><svg xmlns="http://www.w3.org/2000/svg" viewBox="0 0 1440 320"><path fill="#ffd700" fill-opacity="1" d="M0,64L10.4,80C20.9,96,42,128,63,133.3C83.5,139,104,117,125,112C146.1,107,167,117,188,133.3C208.7,149,230,171,250,160C271.3,149,292,107,313,106.7C333.9,107,355,149,376,170.7C396.5,192,417,192,438,197.3C459.1,203,480,213,501,224C521.7,235,543,245,563,245.3C584.3,245,605,235,626,213.3C647,192,668,160,689,133.3C709.6,107,730,85,751,74.7C772.2,64,793,64,814,80C834.8,96,856,128,877,128C897.4,128,918,96,939,106.7C960,117,981,171,1002,165.3C1022.6,160,1043,96,1064,85.3C1085.2,75,1106,117,1127,128C1147.8,139,1169,117,1190,128C1210.4,139,1231,181,1252,213.3C1273,245,1294,267,1315,266.7C1335.7,267,1357,245,1377,229.3C1398.3,213,1419,203,1430,197.3L1440,192L1440,0L1429.6,0C1419.1,0,1398,0,1377,0C1356.5,0,1336,0,1315,0C1293.9,0,1273,0,1252,0C1231.3,0,1210,0,1190,0C1168.7,0,1148,0,1127,0C1106.1,0,1085,0,1064,0C1043.5,0,1023,0,1002,0C980.9,0,960,0,939,0C918.3,0,897,0,877,0C855.7,0,835,0,814,0C793,0,772,0,751,0C730.4,0,710,0,689,0C667.8,0,647,0,626,0C605.2,0,584,0,563,0C542.6,0,522,0,501,0C480,0,459,0,438,0C417.4,0,397,0,376,0C354.8,0,334,0,313,0C292.2,0,271,0,250,0C229.6,0,209,0,188,0C167,0,146,0,125,0C104.3,0,83,0,63,0C41.7,0,21,0,10,0L0,0Z"></path></svg>